<svg xmlns="http://www.w3.org/2000/svg" version="1.1" xmlns:xlink="http://www.w3.org/1999/xlink" xmlns:svgjs="http://svgjs.dev/svgjs" width="1500" height="333" viewBox="0 0 1500 333"><g transform="matrix(1,0,0,1,-0.9090909090909918,-0.42693741696004395)"><svg viewBox="0 0 396 88" data-background-color="#ffffff" preserveAspectRatio="xMidYMid meet" height="333" width="1500" xmlns="http://www.w3.org/2000/svg" xmlns:xlink="http://www.w3.org/1999/xlink"><g id="tight-bounds" transform="matrix(1,0,0,1,0.2400000000000091,0.11282430237983476)"><svg viewBox="0 0 395.52 87.77435139524034" height="87.77435139524034" width="395.52"><g><svg viewBox="0 0 530.8710361273394 117.81164257331214" height="87.77435139524034" width="395.52"><g transform="matrix(1,0,0,1,135.3510361273394,24.289954044100938)"><svg viewBox="0 0 395.52 69.23173448511027" height="69.23173448511027" width="395.52"><g id="textblocktransform"><svg viewBox="0 0 395.52 69.23173448511027" height="69.23173448511027" width="395.52" id="textblock"><g><svg viewBox="0 0 395.52 69.23173448511027" height="69.23173448511027" width="395.52"><g transform="matrix(1,0,0,1,0,0)"><svg width="395.52" viewBox="1.3 -38.05 219.92999999999998 38.5" height="69.23173448511027" data-palette-color="#000000"><g class="wordmark-text-0" data-fill-palette-color="primary" id="text-0"><path d="M18.35-34.85Q25.8-34.85 29.93-31.25 34.05-27.65 34.05-21.25L34.05-21.25Q34.05-19.25 33.7-17.35L33.7-17.35Q32.75-12 29.83-8.08 26.9-4.15 22.38-2.08 17.85 0 12.15 0L12.15 0 1.3 0 7.5-34.85 18.35-34.85ZM12.8-3.5Q19.5-3.5 23.7-7.18 27.9-10.85 29.05-17.35L29.05-17.35Q29.35-19.15 29.35-20.75L29.35-20.75Q29.35-25.7 26.4-28.43 23.45-31.15 17.7-31.15L17.7-31.15 11.4-31.15 6.5-3.5 12.8-3.5ZM53.4-27.85Q56.85-27.85 59.37-26.53 61.9-25.2 63.22-22.83 64.55-20.45 64.55-17.4L64.55-17.4Q64.55-16.35 64.3-14.85L64.3-14.85Q64.1-13.55 63.65-12.15L63.65-12.15 41.75-12.15Q41.65-11.15 41.65-10.7L41.65-10.7Q41.65-7.25 43.72-5.33 45.8-3.4 49.15-3.4L49.15-3.4Q52.1-3.4 54.32-4.78 56.55-6.15 57.7-8.45L57.7-8.45 62.6-8.45Q60.8-4.5 57.07-2.02 53.35 0.45 48.45 0.45L48.45 0.45Q43.3 0.45 40.17-2.53 37.05-5.5 37.05-10.65L37.05-10.65Q37.05-12.1 37.35-13.75L37.35-13.75Q38.1-18 40.4-21.2 42.7-24.4 46.07-26.13 49.45-27.85 53.4-27.85L53.4-27.85ZM59.7-15.45Q59.85-16.45 59.85-17.3L59.85-17.3Q59.85-20.5 57.82-22.25 55.8-24 52.55-24L52.55-24Q49.05-24 46.2-21.73 43.35-19.45 42.35-15.45L42.35-15.45 59.7-15.45ZM74.19-37L78.75-37 72.19 0 67.64 0 74.19-37ZM87.89-31.85Q86.79-31.85 86.07-32.58 85.34-33.3 85.34-34.4L85.34-34.4Q85.34-35.9 86.44-36.98 87.54-38.05 88.99-38.05L88.99-38.05Q90.14-38.05 90.84-37.35 91.54-36.65 91.54-35.5L91.54-35.5Q91.54-34 90.44-32.93 89.34-31.85 87.89-31.85L87.89-31.85ZM84.79-27.4L89.34-27.4 84.49 0 79.94 0 84.79-27.4ZM92.94-13.75Q93.69-18 95.97-21.18 98.24-24.35 101.59-26.1 104.94-27.85 108.84-27.85L108.84-27.85Q113.89-27.85 116.72-25.4 119.54-22.95 119.84-18.6L119.84-18.6 114.94-18.6Q114.69-21.1 112.91-22.55 111.14-24 108.14-24L108.14-24Q104.24-24 101.36-21.33 98.49-18.65 97.64-13.75L97.64-13.75Q97.39-12.1 97.39-11L97.39-11Q97.39-7.35 99.34-5.38 101.29-3.4 104.54-3.4L104.54-3.4Q107.54-3.4 109.77-4.8 111.99-6.2 113.19-8.8L113.19-8.8 118.09-8.8Q116.29-4.6 112.54-2.08 108.79 0.45 103.84 0.45L103.84 0.45Q98.69 0.45 95.66-2.5 92.64-5.45 92.64-10.55L92.64-10.55Q92.64-12.1 92.94-13.75L92.94-13.75ZM130.54-31.85Q129.44-31.85 128.71-32.58 127.99-33.3 127.99-34.4L127.99-34.4Q127.99-35.9 129.09-36.98 130.19-38.05 131.64-38.05L131.64-38.05Q132.79-38.05 133.49-37.35 134.19-36.65 134.19-35.5L134.19-35.5Q134.19-34 133.09-32.93 131.99-31.85 130.54-31.85L130.54-31.85ZM127.44-27.4L131.99-27.4 127.14 0 122.59 0 127.44-27.4ZM146.94 0.45Q143.49 0.45 140.86-0.98 138.24-2.4 136.78-4.98 135.34-7.55 135.34-10.95L135.34-10.95Q135.34-15.6 137.49-19.48 139.64-23.35 143.41-25.6 147.19-27.85 151.84-27.85L151.84-27.85Q155.29-27.85 157.96-26.43 160.64-25 162.11-22.43 163.59-19.85 163.59-16.4L163.59-16.4Q163.59-11.75 161.39-7.9 159.19-4.05 155.39-1.8 151.59 0.45 146.94 0.45L146.94 0.45ZM147.49-3.4Q150.74-3.4 153.34-5.18 155.94-6.95 157.41-9.88 158.89-12.8 158.89-16.15L158.89-16.15Q158.89-19.95 156.69-21.98 154.49-24 151.19-24L151.19-24Q147.94-24 145.39-22.23 142.84-20.45 141.44-17.5 140.03-14.55 140.03-11.15L140.03-11.15Q140.03-7.45 142.14-5.43 144.24-3.4 147.49-3.4L147.49-3.4ZM191.48-27.4L196.03-27.4 191.18 0 186.63 0 187.33-4Q185.68-1.9 183.13-0.75 180.58 0.4 177.83 0.4L177.83 0.4Q173.53 0.4 170.96-1.93 168.38-4.25 168.38-8.6L168.38-8.6Q168.38-9.7 168.63-11.35L168.63-11.35 171.48-27.4 175.98-27.4 173.28-11.95Q173.08-10.9 173.08-9.75L173.08-9.75Q173.08-6.7 174.76-5.13 176.43-3.55 179.43-3.55L179.43-3.55Q183.03-3.55 185.56-5.8 188.08-8.05 188.78-12.35L188.78-12.35 188.78-12.2 191.48-27.4ZM208.53 0.45Q204.23 0.45 201.48-1.6 198.73-3.65 198.73-7.1L198.73-7.1Q198.73-7.75 198.78-8.05L198.78-8.05 203.23-8.05Q203.03-5.9 204.51-4.55 205.98-3.2 208.78-3.2L208.78-3.2Q211.58-3.2 213.31-4.28 215.03-5.35 215.03-7.3L215.03-7.3Q215.03-8.95 213.63-9.9 212.23-10.85 209.33-11.95L209.33-11.95Q206.78-12.9 205.13-13.75 203.48-14.6 202.33-16.13 201.18-17.65 201.18-20L201.18-20Q201.18-22.3 202.51-24.1 203.83-25.9 206.21-26.88 208.58-27.85 211.63-27.85L211.63-27.85Q215.83-27.85 218.53-25.75 221.23-23.65 221.23-20.25L221.23-20.25Q221.23-19.6 221.18-19.25L221.18-19.25 216.83-19.25 216.88-19.85Q216.88-21.85 215.36-23.03 213.83-24.2 211.33-24.2L211.33-24.2Q208.88-24.2 207.31-23.1 205.73-22 205.73-20.15L205.73-20.15Q205.73-18.4 207.18-17.4 208.63-16.4 211.68-15.2L211.68-15.2Q214.23-14.2 215.78-13.38 217.33-12.55 218.43-11.1 219.53-9.65 219.53-7.45L219.53-7.45Q219.53-5.05 218.11-3.25 216.68-1.45 214.18-0.5 211.68 0.45 208.53 0.45L208.53 0.45Z" fill="#000000" data-fill-palette-color="primary"></path></g></svg></g></svg></g></svg></g></svg></g><g><svg viewBox="0 0 119.00708517703252 117.81164257331214" height="117.81164257331214" width="119.00708517703252"><g><svg xmlns="http://www.w3.org/2000/svg" xmlns:xlink="http://www.w3.org/1999/xlink" version="1.1" x="0" y="0" viewBox="1.376776398935361 1.5758465340814458 89.03424416946396 88.13988289247034" style="enable-background:new 0 0 91 91;" xml:space="preserve" height="117.81164257331214" width="119.00708517703252" class="icon-icon-0" data-fill-palette-color="accent" id="icon-0"><g fill="#e60049" data-fill-palette-color="accent"><path d="M38.5 55.7C38.4 59.1 43.7 59.1 43.8 55.7 43.8 50.2 43.9 44.8 43.9 39.3 43.9 36.7 43.9 34 43.8 31.4 43.7 29.2 43.7 26.6 42.4 24.9 42.1 24.5 41.3 24.2 40.9 24.7 38.2 28.1 38.9 34.6 38.8 38.7 38.6 44.4 38.6 50.1 38.5 55.7" fill="#e60049" data-fill-palette-color="accent"></path><path d="M45.9 55.7C45.8 59.1 51.1 59.1 51.2 55.7 51.2 50.2 51.3 44.8 51.3 39.3 51.3 36.7 51.3 34 51.2 31.4 51.1 29.2 51.1 26.6 49.8 24.9 49.5 24.5 48.7 24.2 48.3 24.7 45.6 28.1 46.3 34.6 46.2 38.7 46.1 44.4 46 50.1 45.9 55.7" fill="#e60049" data-fill-palette-color="accent"></path><path d="M36.3 88.8C52.9 92.2 71.4 86 81.9 72.4 93.9 56.7 93.1 33.2 80.2 18.3 78 15.8 74.3 19.5 76.5 22 86.8 33.5 88.4 51.4 81 64.8 75.1 75.3 64.3 82 52.6 83.9 52.3 81.1 52.2 78.2 53.2 75.7 54.5 72.4 58 71 60.1 68.2 63.6 63.6 62 56.5 61.4 51.2 60.4 42.6 59.3 34.1 57.6 25.6 57 22.7 51.9 23.3 52.3 26.3 53.4 35 54.9 43.6 56.2 52.3 56.6 55.1 57.2 57.9 57.3 60.7 57.5 65.4 54.3 66.6 51.5 69.5 47.6 73.6 47.3 79.1 47.9 84.4 46.3 84.5 42.8 84.3 42.6 84.3 43.1 79 42.9 73.5 39 69.5 36.2 66.6 33 65.3 33.2 60.7 33.3 57.9 33.9 55.1 34.3 52.3 35.5 43.6 37.1 35 38.2 26.3 38.6 23.3 33.5 22.6 32.9 25.6 31 34 30 42.6 29 51.2 28.4 56.5 26.7 63.6 30.3 68.2 32.4 70.9 35.9 72.3 37.2 75.7 38.2 78.2 38.1 81 37.8 83.7 24.8 81 13.8 71.5 9.2 58.9 3.9 44.3 7.5 27.5 19 16.8 25.5 10.8 34.3 7.4 43.1 6.8 47.7 6.5 52.1 7.1 56.5 8.3 60.8 9.4 64.5 11.7 68.7 13 69.3 13.2 69.8 12.5 69.5 11.9 65.4 4.4 54.6 1.9 46.7 1.6 37.6 1.3 28.2 3.8 20.6 8.8 5.8 18.5-1.3 37.1 2.3 54.4 5.8 71.2 19.3 85.3 36.3 88.8" fill="#e60049" data-fill-palette-color="accent"></path><path d="M75.2 12.6C74.6 12.2 73.9 12.2 73.2 12.3 72.8 12.4 72.2 12.7 71.9 13.1 71.5 13.6 71.2 14.1 71.2 14.8S71.6 16.2 72.1 16.7C72.5 17 72.9 17.2 73.4 17.2 74.5 17.5 75.8 16.9 76.2 15.9 76.6 15.2 76.5 14.4 76.1 13.7 76 13.2 75.7 12.9 75.2 12.6" fill="#e60049" data-fill-palette-color="accent"></path></g></svg></g></svg></g></svg></g><defs></defs></svg><rect width="395.52" height="87.77435139524034" fill="none" stroke="none" visibility="hidden"></rect></g></svg></g></svg>