<svg xmlns="http://www.w3.org/2000/svg" version="1.1" xmlns:xlink="http://www.w3.org/1999/xlink" xmlns:svgjs="http://svgjs.dev/svgjs" width="1500" height="348" viewBox="0 0 1500 348"><g transform="matrix(1,0,0,1,-0.9090909090909918,-1.6505986991256236)"><svg viewBox="0 0 396 92" data-background-color="#ffffff" preserveAspectRatio="xMidYMid meet" height="348" width="1500" xmlns="http://www.w3.org/2000/svg" xmlns:xlink="http://www.w3.org/1999/xlink"><g id="tight-bounds" transform="matrix(1,0,0,1,0.2400000000000091,0.4363651733320637)"><svg viewBox="0 0 395.52 91.12726965333589" height="91.12726965333589" width="395.52"><g><svg viewBox="0 0 537.9026031135037 123.93202761214495" height="91.12726965333589" width="395.52"><g transform="matrix(1,0,0,1,142.38260311350368,25.55183163173359)"><svg viewBox="0 0 395.52 72.82836434867777" height="72.82836434867777" width="395.52"><g id="textblocktransform"><svg viewBox="0 0 395.52 72.82836434867777" height="72.82836434867777" width="395.52" id="textblock"><g><svg viewBox="0 0 395.52 72.82836434867777" height="72.82836434867777" width="395.52"><g transform="matrix(1,0,0,1,0,0)"><svg width="395.52" viewBox="4.5 -37 204.18 37.6" height="72.82836434867777" data-palette-color="#000000"><g class="wordmark-text-0" data-fill-palette-color="primary" id="text-0"><path d="M13.7 0.4L13.7 0.4Q10.85 0.4 8.72 0.25 6.6 0.1 4.5-0.1L4.5-0.1 4.5-34.9Q6.85-35.15 9.1-35.27 11.35-35.4 14.25-35.4L14.25-35.4Q18.75-35.4 22.03-34 25.3-32.6 27.43-30.15 29.55-27.7 30.58-24.48 31.6-21.25 31.6-17.55L31.6-17.55Q31.6-13.9 30.55-10.65 29.5-7.4 27.33-4.93 25.15-2.45 21.78-1.03 18.4 0.4 13.7 0.4ZM13.85-3.75L13.85-3.75Q18.35-3.75 21.2-5.5 24.05-7.25 25.4-10.38 26.75-13.5 26.75-17.55L26.75-17.55Q26.75-21.15 25.4-24.3 24.05-27.45 21.25-29.38 18.45-31.3 14.1-31.3L14.1-31.3Q12.65-31.3 11.45-31.23 10.25-31.15 9.25-31.05L9.25-31.05 9.25-4Q10.3-3.85 11.45-3.8 12.6-3.75 13.85-3.75ZM48.5 0.6L48.5 0.6Q42.9 0.6 39.62-2.98 36.35-6.55 36.35-13L36.35-13Q36.35-16.9 37.82-19.98 39.3-23.05 41.95-24.83 44.6-26.6 48.1-26.6L48.1-26.6Q51.85-26.6 54.32-24.98 56.8-23.35 58.05-20.6 59.3-17.85 59.3-14.55L59.3-14.55Q59.3-12.8 59.15-11.15L59.15-11.15 40.95-11.15Q41.4-7.5 43.5-5.45 45.6-3.4 49.05-3.4L49.05-3.4Q51.3-3.4 53.1-3.88 54.9-4.35 56.55-5.1L56.55-5.1 57.6-1.25Q55.8-0.45 53.55 0.08 51.3 0.6 48.5 0.6ZM40.9-14.8L40.9-14.8 55.15-14.8Q55.15-18.6 53.25-20.65 51.35-22.7 48-22.7L48-22.7Q45.1-22.7 43.2-20.68 41.3-18.65 40.9-14.8ZM73.2 0.6L73.2 0.6Q70.9 0.6 69.05-0.28 67.2-1.15 66.12-3.1 65.05-5.05 65.05-8.15L65.05-8.15 65.05-37 69.55-37 69.55-8.6Q69.55-5.9 70.67-4.6 71.8-3.3 73.8-3.3L73.8-3.3Q74.75-3.3 75.67-3.53 76.6-3.75 77.25-4.05L77.25-4.05 78.35-0.4Q77.45 0 76.12 0.3 74.8 0.6 73.2 0.6ZM87.09 0L82.59 0 82.59-26 87.09-26 87.09 0ZM84.84-30.45L84.84-30.45Q83.54-30.45 82.62-31.4 81.69-32.35 81.69-33.6L81.69-33.6Q81.69-35.05 82.54-35.9 83.39-36.75 84.84-36.75L84.84-36.75Q86.14-36.75 87.07-35.83 87.99-34.9 87.99-33.6L87.99-33.6Q87.99-32.2 87.14-31.33 86.29-30.45 84.84-30.45ZM105.59 0.6L105.59 0.6Q101.89 0.6 99.12-1.13 96.34-2.85 94.84-5.93 93.34-9 93.34-13L93.34-13Q93.34-16.75 94.87-19.85 96.39-22.95 99.24-24.78 102.09-26.6 105.94-26.6L105.94-26.6Q108.14-26.6 109.82-26.2 111.49-25.8 113.04-25.05L113.04-25.05 111.69-21.25Q110.29-21.95 109.02-22.28 107.74-22.6 106.19-22.6L106.19-22.6Q102.69-22.6 100.32-20.08 97.94-17.55 97.94-13.1L97.94-13.1Q97.94-10.4 98.94-8.2 99.94-6 101.72-4.7 103.49-3.4 105.89-3.4L105.89-3.4Q107.79-3.4 109.14-3.83 110.49-4.25 112.04-5.05L112.04-5.05 113.44-1.25Q111.89-0.4 109.97 0.1 108.04 0.6 105.59 0.6ZM123.19 0L118.69 0 118.69-26 123.19-26 123.19 0ZM120.94-30.45L120.94-30.45Q119.64-30.45 118.71-31.4 117.79-32.35 117.79-33.6L117.79-33.6Q117.79-35.05 118.64-35.9 119.49-36.75 120.94-36.75L120.94-36.75Q122.24-36.75 123.16-35.83 124.09-34.9 124.09-33.6L124.09-33.6Q124.09-32.2 123.24-31.33 122.39-30.45 120.94-30.45ZM142.14 0.6L142.14 0.6Q138.44 0.6 135.49-1.13 132.54-2.85 130.86-5.93 129.19-9 129.19-13L129.19-13Q129.19-17.2 130.89-20.25 132.59-23.3 135.54-24.95 138.49-26.6 142.14-26.6L142.14-26.6Q145.79-26.6 148.71-24.95 151.64-23.3 153.36-20.28 155.09-17.25 155.09-13.1L155.09-13.1Q155.09-8.95 153.39-5.88 151.69-2.8 148.76-1.1 145.84 0.6 142.14 0.6ZM142.14-3.4L142.14-3.4Q146.09-3.4 148.29-6.08 150.49-8.75 150.49-13L150.49-13Q150.49-15.6 149.39-17.78 148.29-19.95 146.41-21.28 144.54-22.6 142.14-22.6L142.14-22.6Q138.19-22.6 135.99-20 133.79-17.4 133.79-13.1L133.79-13.1Q133.79-10.5 134.89-8.28 135.99-6.05 137.86-4.73 139.74-3.4 142.14-3.4ZM169.58 0.6L169.58 0.6Q167.33 0.6 165.33-0.35 163.33-1.3 162.08-3.43 160.83-5.55 160.83-9.1L160.83-9.1 160.83-26 165.33-26 165.33-9.7Q165.33-6.65 166.63-5.03 167.93-3.4 170.43-3.4L170.43-3.4Q172.48-3.4 174.41-4.23 176.33-5.05 177.83-6.45L177.83-6.45 177.83-26 182.33-26 182.33-6.75Q182.33-4.6 183.26-3.93 184.18-3.25 185.28-3.25L185.28-3.25 184.33 0.25Q179.68 0.25 178.58-3.45L178.58-3.45Q176.83-1.65 174.53-0.53 172.23 0.6 169.58 0.6ZM198.28 0.6L198.28 0.6Q195.33 0.6 192.96-0.15 190.58-0.9 189.03-2.1L189.03-2.1 190.93-5.85Q192.23-4.75 194.21-4.03 196.18-3.3 198.43-3.3L198.43-3.3Q201.23-3.3 202.66-4.23 204.08-5.15 204.08-6.6L204.08-6.6Q204.08-7.65 203.56-8.45 203.03-9.25 201.63-10.03 200.23-10.8 197.58-11.7L197.58-11.7Q193.93-12.95 192.11-14.68 190.28-16.4 190.28-19.45L190.28-19.45Q190.28-22.45 192.91-24.53 195.53-26.6 200.18-26.6L200.18-26.6Q202.68-26.6 204.63-26.08 206.58-25.55 208.13-24.75L208.13-24.75 206.88-21.05Q205.53-21.85 203.81-22.35 202.08-22.85 199.98-22.85L199.98-22.85Q197.38-22.85 196.03-21.8 194.68-20.75 194.68-19.5L194.68-19.5Q194.68-18.3 195.73-17.45 196.78-16.6 199.83-15.6L199.83-15.6Q204.78-13.95 206.73-11.95 208.68-9.95 208.68-6.95L208.68-6.95Q208.68-3.45 205.86-1.43 203.03 0.6 198.28 0.6Z" fill="#000000" data-fill-palette-color="primary"></path></g></svg></g></svg></g></svg></g></svg></g><g><svg viewBox="0 0 125.18957417152522 123.93202761214495" height="123.93202761214495" width="125.18957417152522"><g><svg xmlns="http://www.w3.org/2000/svg" xmlns:xlink="http://www.w3.org/1999/xlink" version="1.1" x="0" y="0" viewBox="1.376776398935361 1.5758465340814458 89.03424416946396 88.13988289247034" style="enable-background:new 0 0 91 91;" xml:space="preserve" height="123.93202761214495" width="125.18957417152522" class="icon-icon-0" data-fill-palette-color="accent" id="icon-0"><g fill="#e60049" data-fill-palette-color="accent"><path d="M38.5 55.7C38.4 59.1 43.7 59.1 43.8 55.7 43.8 50.2 43.9 44.8 43.9 39.3 43.9 36.7 43.9 34 43.8 31.4 43.7 29.2 43.7 26.6 42.4 24.9 42.1 24.5 41.3 24.2 40.9 24.7 38.2 28.1 38.9 34.6 38.8 38.7 38.6 44.4 38.6 50.1 38.5 55.7" fill="#e60049" data-fill-palette-color="accent"></path><path d="M45.9 55.7C45.8 59.1 51.1 59.1 51.2 55.7 51.2 50.2 51.3 44.8 51.3 39.3 51.3 36.7 51.3 34 51.2 31.4 51.1 29.2 51.1 26.6 49.8 24.9 49.5 24.5 48.7 24.2 48.3 24.7 45.6 28.1 46.3 34.6 46.2 38.7 46.1 44.4 46 50.1 45.9 55.7" fill="#e60049" data-fill-palette-color="accent"></path><path d="M36.3 88.8C52.9 92.2 71.4 86 81.9 72.4 93.9 56.7 93.1 33.2 80.2 18.3 78 15.8 74.3 19.5 76.5 22 86.8 33.5 88.4 51.4 81 64.8 75.1 75.3 64.3 82 52.6 83.9 52.3 81.1 52.2 78.2 53.2 75.7 54.5 72.4 58 71 60.1 68.2 63.6 63.6 62 56.5 61.4 51.2 60.4 42.6 59.3 34.1 57.6 25.6 57 22.7 51.9 23.3 52.3 26.3 53.4 35 54.9 43.6 56.2 52.3 56.6 55.1 57.2 57.9 57.3 60.7 57.5 65.4 54.3 66.6 51.5 69.5 47.6 73.6 47.3 79.1 47.9 84.4 46.3 84.5 42.8 84.3 42.6 84.3 43.1 79 42.9 73.5 39 69.5 36.2 66.6 33 65.3 33.2 60.7 33.3 57.9 33.9 55.1 34.3 52.3 35.5 43.6 37.1 35 38.2 26.3 38.6 23.3 33.5 22.6 32.9 25.6 31 34 30 42.6 29 51.2 28.4 56.5 26.7 63.6 30.3 68.2 32.4 70.9 35.9 72.3 37.2 75.7 38.2 78.2 38.1 81 37.8 83.7 24.8 81 13.8 71.5 9.2 58.9 3.9 44.3 7.5 27.5 19 16.8 25.5 10.8 34.3 7.4 43.1 6.8 47.7 6.5 52.1 7.1 56.5 8.3 60.8 9.4 64.5 11.7 68.7 13 69.3 13.2 69.8 12.5 69.5 11.9 65.4 4.4 54.6 1.9 46.7 1.6 37.6 1.3 28.2 3.8 20.6 8.8 5.8 18.5-1.3 37.1 2.3 54.4 5.8 71.2 19.3 85.3 36.3 88.8" fill="#e60049" data-fill-palette-color="accent"></path><path d="M75.2 12.6C74.6 12.2 73.9 12.2 73.2 12.3 72.8 12.4 72.2 12.7 71.9 13.1 71.5 13.6 71.2 14.1 71.2 14.8S71.6 16.2 72.1 16.7C72.5 17 72.9 17.2 73.4 17.2 74.5 17.5 75.8 16.9 76.2 15.9 76.6 15.2 76.5 14.4 76.1 13.7 76 13.2 75.7 12.9 75.2 12.6" fill="#e60049" data-fill-palette-color="accent"></path></g></svg></g></svg></g></svg></g><defs></defs></svg><rect width="395.52" height="91.12726965333589" fill="none" stroke="none" visibility="hidden"></rect></g></svg></g></svg>